<svg aria-hidden="true" style="position:absolute;width:0;height:0;overflow:hidden" xmlns="http://www.w3.org/2000/svg">
  <defs>
    <symbol id="icon-arrow" viewBox="0 0 32 32">
      <path d="M10.024 30.09c-.198.198-.447.298-.719.298s-.521-.099-.719-.298a1.018 1.018 0 0 1 0-1.439L21.237 16 8.586 3.349a1.018 1.018 0 0 1 1.439-1.439l13.371 13.371a1.018 1.018 0 0 1 0 1.439L10.025 30.091z"/>
    </symbol>
    <symbol id="icon-call" viewBox="0 0 32 32">
      <path d="m31.16 24.687-6.477-4.319a1.89 1.89 0 0 0-2.531.411l-1.887 2.426a.807.807 0 0 1-1.034.218l-.359-.198c-1.19-.648-2.67-1.456-5.652-4.439s-3.791-4.465-4.44-5.652l-.197-.359a.807.807 0 0 1 .213-1.038l2.424-1.886a1.89 1.89 0 0 0 .412-2.531L7.313.843A1.88 1.88 0 0 0 4.778.272L2.07 1.899A3.822 3.822 0 0 0 .328 4.16c-.975 3.554-.242 9.687 8.793 18.722C16.308 30.068 21.658 32 25.335 32a9.427 9.427 0 0 0 2.506-.327 3.815 3.815 0 0 0 2.261-1.742l1.629-2.707a1.88 1.88 0 0 0-.57-2.536zm-.348 1.989-1.625 2.708a2.761 2.761 0 0 1-1.626 1.261c-3.281.901-9.012.155-17.685-8.519S.457 7.722 1.357 4.441a2.765 2.765 0 0 1 1.262-1.629l2.708-1.625a.816.816 0 0 1 1.1.247l4.316 6.476a.822.822 0 0 1-.178 1.099L8.14 10.895a1.865 1.865 0 0 0-.494 2.395l.193.35c.682 1.25 1.529 2.805 4.622 5.898s4.648 3.94 5.897 4.622l.35.193c.81.454 1.831.243 2.395-.494l1.886-2.425a.822.822 0 0 1 1.099-.178l6.476 4.319a.814.814 0 0 1 .247 1.1zM18.133 5.336c5.004.006 9.06 4.061 9.065 9.065a.533.533 0 1 0 1.066 0c-.006-5.593-4.539-10.126-10.132-10.132a.533.533 0 0 0 0 1.066z"/>
      <path d="M18.133 8.536a5.873 5.873 0 0 1 5.866 5.866.533.533 0 0 0 1.066 0 6.94 6.94 0 0 0-6.932-6.932.533.533 0 0 0 0 1.066z"/>
      <path d="M18.133 11.736a2.668 2.668 0 0 1 2.666 2.666.533.533 0 1 0 1.066 0 3.737 3.737 0 0 0-3.733-3.733.533.533 0 0 0 0 1.066z"/>
    </symbol>
    <symbol id="icon-email" viewBox="0 0 32 32">
      <path d="M28.093 3.823H3.913A3.917 3.917 0 0 0 0 7.736v16.526a3.916 3.916 0 0 0 3.913 3.913h24.174A3.916 3.916 0 0 0 32 24.262V7.742a3.912 3.912 0 0 0-3.907-3.92zm2.126 20.44a2.127 2.127 0 0 1-2.125 2.125H3.914a2.127 2.127 0 0 1-2.125-2.125V7.743c0-1.172.953-2.125 2.125-2.125h24.174c1.172 0 2.125.953 2.125 2.125v16.52h.007z"/>
      <path d="m20.181 15.795 7.826-7.018a.899.899 0 0 0 .066-1.265.899.899 0 0 0-1.265-.066l-10.792 9.687-2.105-1.88c-.007-.007-.013-.013-.013-.02a1.362 1.362 0 0 0-.146-.126L5.184 7.44c-.371-.331-.934-.298-1.265.073s-.298.934.073 1.265l7.919 7.078-7.886 7.383a.898.898 0 0 0 1.225 1.312l8.005-7.488 2.172 1.94a.894.894 0 0 0 1.192-.007l2.231-2 7.959 7.561a.896.896 0 0 0 1.265-.033.898.898 0 0 0-.033-1.265l-7.859-7.462z"/>
    </symbol>
    <symbol id="icon-map" viewBox="0 0 32 32">
      <path d="M15.978 0C9.511 0 4.25 5.261 4.25 11.728c0 2.971 1.872 7.168 5.564 12.475 2.698 3.88 5.353 6.882 5.464 7.008l.7.789.7-.789a83.531 83.531 0 0 0 5.464-7.008c3.692-5.307 5.564-9.505 5.564-12.475C27.706 5.261 22.445 0 15.978 0zm4.638 23.12a85.031 85.031 0 0 1-4.639 6.035 85.105 85.105 0 0 1-4.628-6.019C7.928 18.219 6.12 14.274 6.12 11.729c0-5.435 4.422-9.857 9.857-9.857s9.857 4.422 9.857 9.857c0 2.542-1.804 6.481-5.218 11.392z"/>
      <path d="M15.976 4.334c-3.817 0-6.922 3.105-6.922 6.922s3.105 6.922 6.922 6.922c3.817 0 6.922-3.105 6.922-6.922s-3.105-6.922-6.922-6.922zm0 11.973c-2.785 0-5.051-2.266-5.051-5.051s2.266-5.051 5.051-5.051 5.051 2.266 5.051 5.051-2.266 5.051-5.051 5.051z"/>
    </symbol>
    <symbol id="icon-play-button" viewBox="0 0 32 32">
      <path d="M32 16c0 8.837-7.163 16-16 16S0 24.837 0 16 7.163 0 16 0s16 7.163 16 16z"/>
      <path d="M16 0C7.164 0 0 7.163 0 16s7.164 16 16 16 16-7.163 16-16S24.836 0 16 0zm5.53 16.848-8 5A1.002 1.002 0 0 1 12 21V11a1.002 1.002 0 0 1 1.53-.848l8 5a1 1 0 0 1 0 1.696z"/>
    </symbol>
    <symbol id="icon-services" viewBox="0 0 32 32">
      <path d="M31.466 0h-24a.533.533 0 0 0-.533.533v8H8V1.066h22.933v29.333a.525.525 0 0 1-.491.533c-.046 0-.092-.004-.138-.005-.094-.003-.189-.005-.282-.014-.008 0-.015 0-.023-.003a3.738 3.738 0 0 1-3.31-3.307c0-.008-.003-.016-.004-.023a3.738 3.738 0 0 1-.019-.381v-1.067a.533.533 0 0 0-.533-.533H8v-9.6H6.933v9.6H2.666a.533.533 0 0 0-.533.533v1.067a4.805 4.805 0 0 0 4.8 4.8h23.52a1.589 1.589 0 0 0 1.547-1.6V.532a.533.533 0 0 0-.533-.533zM6.933 30.933A3.736 3.736 0 0 1 3.2 27.2v-.533h22.4v.533c.001.176.011.352.03.526.005.046.014.091.02.137.018.129.039.258.067.384l.033.132c.032.129.069.255.112.38l.038.107c.048.132.103.261.164.389l.037.077a4.6 4.6 0 0 0 .22.394l.031.053c.087.136.181.268.281.395l.017.023c.116.146.241.286.373.418.115.114.234.22.357.32l-20.449-.002z"/>
      <path d="M17.6 14.933a.534.534 0 0 0 .377-.156l2.133-2.133a.534.534 0 0 0 0-.754l-2.133-2.133a.534.534 0 0 0-.377-.156H2.667a2.667 2.667 0 1 0 0 5.334H17.6zm-.138-4.183 1.517 1.517-1.517 1.517-.379-1.517.379-1.517zm-13.195-.083h12.117l-.267 1.067H5.333v1.067h10.784l.267 1.067H4.267v-3.2zm-3.2 1.6a1.6 1.6 0 0 1 1.6-1.6H3.2v3.2h-.533a1.6 1.6 0 0 1-1.6-1.6zM12.266 22.933h16a.533.533 0 0 0 .533-.533v-16a.533.533 0 0 0-.911-.377l-16 16a.534.534 0 0 0 .377.91zM27.733 7.687v1.379h-1.067v1.067h1.067V11.2h-1.067v1.067h1.067v1.067h-1.067v1.067h1.067v1.067h-1.067v1.067h1.067v1.067h-1.067v1.067h1.067v1.067h-1.067v1.067h1.067v1.067h-1.067v-1.067h-1.067v1.067h-1.067v-1.067h-1.067v1.067h-1.067v-1.067h-1.067v1.067h-1.067v-1.067h-1.067v1.067H18.13v-1.067h-1.067v1.067h-1.067v-1.067h-1.067v1.067H13.55L27.729 7.691z"/>
      <path d="M19.993 19.733h5.075a.533.533 0 0 0 .533-.533v-5.075a.533.533 0 0 0-.91-.377l-5.075 5.075a.534.534 0 0 0 .377.91zm4.541-4.32v3.253h-3.253l3.253-3.253zM24.534 3.2H13.867v1.067h10.667V3.2zM26.134 5.333H12.267V6.4h13.867V5.333zM12.267 16.533h-3.2V17.6h3.2v-1.067zM11.2 18.667H9.067v1.067H11.2v-1.067z"/>
    </symbol>
    <symbol id="icon-standarts" viewBox="0 0 32 32">
      <path d="M12.626 22.425a.528.528 0 0 1-.342-.126l-3.419-2.911a.527.527 0 0 1 0-.804l3.419-2.911a.529.529 0 0 1 .685.805l-2.946 2.509 2.946 2.509a.529.529 0 0 1-.343.931zM19.374 22.425a.529.529 0 0 1-.342-.931l2.946-2.509-2.946-2.509a.529.529 0 0 1 .684-.805l3.419 2.911a.527.527 0 0 1 0 .804l-3.419 2.911a.523.523 0 0 1-.342.126zM14.79 24.609a.529.529 0 0 1-.518-.638l2.131-10.116a.529.529 0 0 1 1.034.218l-2.131 10.116a.528.528 0 0 1-.516.42z"/>
      <path d="M28.453 30.12H3.547A3.55 3.55 0 0 1 0 26.573V5.434a3.55 3.55 0 0 1 3.547-3.547h24.906A3.55 3.55 0 0 1 32 5.434v21.139a3.55 3.55 0 0 1-3.547 3.547zM3.547 2.944a2.494 2.494 0 0 0-2.491 2.491v21.139a2.494 2.494 0 0 0 2.491 2.491h24.906a2.494 2.494 0 0 0 2.491-2.491V5.435a2.494 2.494 0 0 0-2.491-2.491H3.547z"/>
      <path d="M31.472 10.346H.529a.527.527 0 1 1 0-1.056h30.943a.528.528 0 0 1 0 1.056zM9.026 7.818c-.922 0-1.672-.75-1.672-1.672s.75-1.672 1.672-1.672c.922 0 1.672.75 1.672 1.672s-.75 1.672-1.672 1.672zm0-2.287a.616.616 0 1 0 .002 1.232.616.616 0 0 0-.002-1.232zM3.891 7.802c-.922 0-1.672-.75-1.672-1.672s.75-1.672 1.672-1.672c.922 0 1.672.75 1.672 1.672s-.75 1.672-1.672 1.672zm0-2.287a.616.616 0 1 0 .002 1.232.616.616 0 0 0-.002-1.232zM14.163 7.834c-.921 0-1.672-.75-1.672-1.672s.75-1.672 1.672-1.672c.922 0 1.672.75 1.672 1.672s-.75 1.672-1.672 1.672zm0-2.287a.616.616 0 1 0 .002 1.232.616.616 0 0 0-.002-1.232z"/>
    </symbol>
  </defs>
</svg>
